<?xml version="1.0" encoding="UTF-8"?>
<svg width="163px" height="51px" viewBox="0 0 163 51" version="1.1" xmlns="http://www.w3.org/2000/svg" xmlns:xlink="http://www.w3.org/1999/xlink">
    <!-- Generator: Sketch 39.1 (31720) - http://www.bohemiancoding.com/sketch -->
     <style type="text/css">
        #a { animation: x 1.5s ease alternate 140; }

        @keyframes x {
            0%   {transform: translateY(0)}
  10%  {transform: translateY(-2px)}
  20%  {transform: translateY(2px)}
  25% {transform: translateY(0)}
        }
    </style>
    
    <title>Artboard</title>
    <desc>Created with Sketch.</desc>
    <defs></defs>
    <g id="Page-1" stroke="none" stroke-width="1" fill="none" fill-rule="evenodd">
        <g id="Artboard">
            <path d="M1.13508516,50.2392919 C18.161556,31.194766 32.8750484,36.4942313 32.8750484,36.4942313 L40.9403738,26.1149033 L9.06236603,46.6341301 L42.6204051,43.8829829 L46.9071285,48.0554544 L32.2406309,38.870222 L62.5604977,32.8738192 L58.4955267,41.8546981 C58.4955267,41.8546981 103.265895,42.8258183 81.6987571,45.9783688 C60.1316187,49.1309194 76.9934944,30.5054536 76.9934944,30.5054536 C76.9934944,30.5054536 82.6312938,47.3585175 87.9915319,36.7367104 C93.35177,26.1149033 119.796112,31.0437878 119.796112,31.0437878 L103.665461,42.0987023 L131.609199,46.6737807 C131.609199,46.6737807 73.7714745,47.681823 96.783794,36.8983632 C119.796113,26.1149033 133.914837,32.0686054 133.914837,32.0686054 L145.025953,41.6213691 L155.673005,48.032579 L167,32.1860324 L166.560901,51.3449358 C166.560901,51.3449358 -15.8913856,69.2838178 1.13508516,50.2392919 Z" id="a" fill="#1AFFC2"></path>
            <path d="M-19,70.5260417 C-11.4153633,62.4850089 -2.56121677,56.0831308 5.58997023,51.2065138 C7.99096597,49.7700683 10.3309699,48.4659609 12.5595715,47.291281 C23.2495359,41.6566772 31.3763021,39 31.3763021,39 L44.6888021,70.0299479 L122.420573,57.828125 L122.553385,68.5598958 L198.140625,66.5299479" id="Path-2" fill="#4990E2" style="mix-blend-mode: saturation;"></path>
            <path d="M58,66.5260417 C65.5846367,58.4850089 74.4387832,52.0831308 82.5899702,47.2065138 C84.990966,45.7700683 87.3309699,44.4659609 89.5595715,43.291281 C100.249536,37.6566772 108.376302,35 108.376302,35 L121.688802,66.0299479 L199.420573,53.828125 L199.553385,64.5598958 L275.140625,62.5299479" id="Path-2" fill="#4990E2" opacity="0.768399004" style="mix-blend-mode: hue;"></path>
            <path d="M119,66.5260417 C126.584637,58.4850089 135.438783,52.0831308 143.58997,47.2065138 C145.990966,45.7700683 148.33097,44.4659609 150.559571,43.291281 C161.249536,37.6566772 169.376302,35 169.376302,35 L182.688802,66.0299479 L260.420573,53.828125 L260.553385,64.5598958 L336.140625,62.5299479" id="Path-2" fill="#02181C" style="mix-blend-mode: hue;" opacity="0.768399004"></path>
        </g>
    </g>
   
</svg>